<svg width="24" height="24" viewBox="0 0 24 24" fill="none" xmlns="http://www.w3.org/2000/svg">
<g clip-path="url(#clip0_215_151792)">
<path fill-rule="evenodd" clip-rule="evenodd" d="M7.324 0C6.97984 0 6.66905 0.205845 6.53477 0.522729L2.67763 9.62559L2.67401 9.63427C2.56732 9.89398 2.52604 10.1759 2.55383 10.4553C2.5816 10.7347 2.67758 11.003 2.83332 11.2366C2.98907 11.4703 3.19982 11.662 3.44704 11.7951C3.69425 11.9283 3.97039 11.9986 4.25116 12L7.90195 12L4.78555 22.9073C4.67942 23.2788 4.83487 23.6753 5.16514 23.8757C5.4954 24.0761 5.9189 24.0307 6.19929 23.765L20.9251 9.81074L20.9302 9.8058C21.1748 9.57007 21.3439 9.26695 21.416 8.93494C21.488 8.60294 21.4597 8.25701 21.3349 7.94107C21.21 7.62514 20.994 7.35343 20.7144 7.16045C20.4348 6.96747 20.1041 6.86194 19.7645 6.85723L14.7109 6.85714L17.5193 1.24047C17.6521 0.974765 17.6379 0.659217 17.4817 0.406515C17.3256 0.153816 17.0496 0 16.7526 0H7.324Z" fill="#0D0D12"/>
</g>
<defs>
<clipPath id="clip0_215_151792">
<rect width="24" height="24" fill="white"/>
</clipPath>
</defs>
</svg>
